<?xml version="1.0" encoding="UTF-8"?>
<svg id="Layer_1" data-name="Layer 1" xmlns="http://www.w3.org/2000/svg" viewBox="0 0 6571.19 898.13">
  <defs>
    <style>
      .cls-1 {
        fill: #fff;
      }

      .cls-2, .cls-3, .cls-4, .cls-5, .cls-6 {
        fill: #231f20;
      }

      .cls-2, .cls-3, .cls-4, .cls-5, .cls-7 {
        stroke: #231f20;
        stroke-miterlimit: 10;
      }

      .cls-2, .cls-7 {
        stroke-width: .75px;
      }

      .cls-4 {
        stroke-width: .25px;
      }

      .cls-5 {
        stroke-width: .92px;
      }

      .cls-7 {
        fill: none;
      }
    </style>
  </defs>
  <g>
    <polygon class="cls-4" points="2986.55 297.43 2986.75 310.93 5542.86 247.45 5546.28 233.9 2986.55 297.43"/>
    <polygon class="cls-4" points="2987.37 351.42 2986.96 324.42 5539.44 261.01 5528.04 306.19 2987.37 351.42"/>
    <polygon class="cls-4" points="2988.05 396.42 2987.64 369.42 5520.13 337.52 5508.73 382.7 2988.05 396.42"/>
    <polygon class="cls-4" points="2988.46 423.41 2988.26 409.91 5505.31 396.26 5501.89 409.81 2988.46 423.41"/>
  </g>
  <g>
    <polygon class="cls-4" points="3444.24 42.46 3444.24 55.96 887.46 31.35 883.84 17.85 3444.24 42.46"/>
    <polygon class="cls-4" points="3444.24 96.46 3444.24 69.46 891.09 44.85 903.17 89.85 3444.24 96.46"/>
    <polygon class="cls-4" points="3444.24 141.46 3444.24 114.46 911.56 121.07 923.64 166.07 3444.24 141.46"/>
    <polygon class="cls-4" points="3444.24 168.46 3444.24 154.96 927.27 179.57 930.9 193.07 3444.24 168.46"/>
  </g>
  <g>
    <g>
      <path class="cls-6" d="m4965.84,118.27v-22.88c0-3.65,1.4-6.8,4.2-9.47,2.8-2.67,5.6-4.13,8.4-4.4,2.8-.27,4.49-.42,5.06-.46.57-.03.96-.05,1.16-.05,1.21,0,3.24.15,6.07.46,2.83.3,5.63,1.74,8.4,4.3,2.77,2.57,4.15,5.7,4.15,9.42,0,.95-.03,1.67-.1,2.18-.07.51-.46,1.87-1.16,4.1-.71,2.23-2.3,4.05-4.76,5.47-2.46,1.42-4.74,2.23-6.83,2.43l-14.38.91c-1.49,0-2.75.69-3.8,2.08-1.05,1.38-1.57,3.22-1.57,5.52,0,1.35.37,3.16,1.12,5.42.74,2.26,2.18,3.61,4.32,4.05,2.13.44,3.47.66,4.01.66,2.1,0,3.84-.79,5.23-2.38,1.39-1.59,2.37-3.44,2.94-5.57.58-2.13,1.18-3.47,1.83-4.05.64-.57,1.61-1.1,2.9-1.57,1.08-.27,1.86-.4,2.33-.4.81,0,1.79.22,2.95.66,1.15.44,2.27,1.43,3.35,2.99,1.08,1.55,1.62,3.11,1.62,4.66,0,1.82-.91,3.78-2.74,5.87-1.83,2.09-4.4,3.71-7.71,4.86-1.62.67-3.59,1.01-5.89,1.01-.47,0-.98-.04-1.52-.1-.54-.07-2.28-.24-5.23-.51-2.94-.27-6.07-1.89-9.39-4.86-3.32-2.97-4.97-6.41-4.97-10.33Zm15.59-15.08c1.65,1.62,3.74,2.43,6.28,2.43,2.4,0,4.94-.74,7.62-2.23,2.68-1.48,4.02-4.08,4.02-7.8v-1.32c0-1.21-.29-2.34-.87-3.39-.58-1.05-1.49-2.06-2.71-3.04-1.23-.98-2.7-1.47-4.4-1.47-3.28-.34-5.75.74-7.42,3.24-1.67,2.5-2.51,6.51-2.51,12.05v1.52Z"/>
      <path class="cls-6" d="m5014.84,133.36c-2.83-1.08-4.25-2.97-4.25-5.66v-61.87c0-3.1,1.03-4.95,3.09-5.56,2.06-.61,3.56-.91,4.5-.91.74,0,1.67.1,2.78.3,1.11.2,2.26.93,3.44,2.17,1.18,1.25,1.77,2.61,1.77,4.09v62.18c0,1.62-.73,3.03-2.18,4.25-1.45,1.21-3.19,1.82-5.21,1.82-1.01,0-1.74-.05-2.18-.15-.44-.1-1.03-.32-1.77-.66Z"/>
      <path class="cls-6" d="m5034.88,118.27v-22.88c0-3.65,1.4-6.8,4.2-9.47,2.8-2.67,5.6-4.13,8.4-4.4,2.8-.27,4.49-.42,5.06-.46.57-.03.96-.05,1.16-.05,1.21,0,3.24.15,6.07.46,2.83.3,5.63,1.74,8.4,4.3,2.77,2.57,4.15,5.7,4.15,9.42,0,.95-.03,1.67-.1,2.18-.07.51-.46,1.87-1.16,4.1-.71,2.23-2.3,4.05-4.76,5.47-2.46,1.42-4.74,2.23-6.83,2.43l-14.38.91c-1.49,0-2.75.69-3.8,2.08-1.05,1.38-1.57,3.22-1.57,5.52,0,1.35.37,3.16,1.12,5.42.74,2.26,2.18,3.61,4.32,4.05,2.13.44,3.47.66,4.01.66,2.1,0,3.84-.79,5.23-2.38,1.39-1.59,2.37-3.44,2.94-5.57.58-2.13,1.18-3.47,1.83-4.05.64-.57,1.61-1.1,2.9-1.57,1.08-.27,1.86-.4,2.33-.4.81,0,1.79.22,2.95.66,1.15.44,2.27,1.43,3.35,2.99,1.08,1.55,1.62,3.11,1.62,4.66,0,1.82-.91,3.78-2.74,5.87-1.83,2.09-4.4,3.71-7.71,4.86-1.62.67-3.59,1.01-5.89,1.01-.47,0-.98-.04-1.52-.1-.54-.07-2.28-.24-5.23-.51-2.94-.27-6.07-1.89-9.39-4.86-3.32-2.97-4.97-6.41-4.97-10.33Zm15.59-15.08c1.65,1.62,3.74,2.43,6.28,2.43,2.4,0,4.94-.74,7.62-2.23,2.68-1.48,4.02-4.08,4.02-7.8v-1.32c0-1.21-.29-2.34-.87-3.39-.58-1.05-1.49-2.06-2.71-3.04-1.23-.98-2.7-1.47-4.4-1.47-3.28-.34-5.75.74-7.42,3.24-1.67,2.5-2.51,6.51-2.51,12.05v1.52Z"/>
      <path class="cls-6" d="m5097.55,133.86c-5.74-.68-10.16-2.44-13.26-5.28-3.11-2.85-4.66-6.3-4.66-10.37v-21.65c0-4.34,1.74-7.98,5.21-10.92,3.48-2.95,7.88-4.42,13.21-4.42,1.96,0,3.66.15,5.11.46,1.45.31,3.19.86,5.21,1.68l2.83,1.32c2.36,1.29,4.13,2.73,5.31,4.33,1.18,1.59,1.77,3.2,1.77,4.83,0,1.97-.83,3.73-2.48,5.29-1.65,1.56-3.36,2.34-5.11,2.34-1.62,0-3.05-.49-4.3-1.48-1.25-.99-2.45-2.5-3.59-4.54-1.15-2.04-2.06-3.77-2.73-5.2-.68-1.43-1.43-2.41-2.28-2.95-.84-.54-1.84-.82-2.99-.82-1.42,0-2.78.22-4.1.66-1.32.44-2.8,1.48-4.45,3.1-1.65,1.63-2.48,3.8-2.48,6.51v22.38c0,2.71,1.11,4.95,3.34,6.72,2.23,1.76,4.39,2.64,6.48,2.64,3.64,0,6.46-2.46,8.45-7.39,1.99-4.93,4.64-7.39,7.95-7.39,1.42,0,3.07.66,4.96,1.97,1.89,1.32,2.83,3.36,2.83,6.13,0,2.3-.68,4.32-2.02,6.07-1.35,1.76-2.97,3.06-4.86,3.9-1.89.85-3.71,1.4-5.47,1.67-1.76.27-2.97.4-3.64.4h-4.25Z"/>
      <path class="cls-6" d="m5120.43,85.07c-.07-.81.14-1.52.61-2.13.47-.61,1.08-.91,1.82-.91h6.28c1.42,0,2.46-.07,3.14-.2.67-.14,1.52-.59,2.53-1.37,1.01-.78,1.52-2.05,1.52-3.8v-4.97c0-.61.24-1.22.71-1.83.61-.47,1.18-.71,1.72-.71.67,0,1.25.24,1.72.71.47.47.71,1.15.71,2.03v6.7c.21,1.22.46,2.1.77,2.64.31.54.57.81.77.81h2.47c.62,0,1.08.25,1.39.76.31.51.39,1.23.26,2.18-.2,1.42-.78,2.13-1.72,2.13h-2.23c-.4.34-.61.61-.61.81v39.18c0,1.89-.69,3.53-2.08,4.91-1.38,1.38-3.26,2.08-5.62,2.08-2.57,0-4.69-.69-6.38-2.08-1.69-1.38-2.53-3.15-2.53-5.32v-37.25c0-1.55-.57-2.33-1.72-2.33h-1.52c-1.15,0-1.82-.67-2.03-2.02Z"/>
      <path class="cls-6" d="m5157.48,133.66c-1.89-.47-3.41-1.42-4.56-2.83-1.15-1.42-1.72-3.07-1.72-4.96v-30.27c0-3.91,1.75-7.34,5.26-10.28,3.51-2.94,8.06-4.4,13.67-4.4h1.52c.74.14,2.56.35,5.47.66,2.9.3,5.74,1.67,8.5,4.1,2.77,2.43,4.15,5.43,4.15,9.01v19.34c0,1.62-.59,3.07-1.77,4.35-1.18,1.28-2.72,2.06-4.61,2.33-2.36.2-4.52-.59-6.48-2.38-1.96-1.79-2.94-3.76-2.94-5.92,0-2.29,1.35-4.39,4.05-6.28l1.11-.71,2.63-1.72c2.63-1.62,3.95-3.71,3.95-6.28,0-1.01-.19-2.24-.56-3.7-.38-1.45-1.16-2.8-2.36-4.05-1.19-1.25-2.44-2.04-3.74-2.38-1.3-.34-2.1-.54-2.41-.61-.31-.07-.84-.1-1.59-.1-3.96,0-6.48,1.89-7.58,5.67v33.81c0,1.76-.54,3.32-1.62,4.71-1.08,1.38-2.26,2.24-3.54,2.58-1.28.34-2.3.51-3.04.51-.4,0-1.01-.07-1.82-.2Z"/>
      <path class="cls-6" d="m5199.09,71.2c-.81-1.35-1.21-2.8-1.21-4.35,0-1.21.27-2.41.81-3.59.54-1.18,1.47-2.18,2.78-2.99,1.32-.81,2.72-1.21,4.2-1.21,1.08,0,2.23.27,3.44.81,1.42.81,2.43,1.76,3.04,2.83.88,1.28,1.32,2.73,1.32,4.35,0,1.21-.47,2.82-1.42,4.81-.95,1.99-3.11,2.99-6.48,2.99-1.15,0-2.31-.3-3.49-.91-1.18-.61-2.18-1.52-2.99-2.73Zm-.4,57.08l-.3-2.13v-37.5c0-1.76.51-3.32,1.52-4.68,1.01-1.35,2.13-2.2,3.34-2.54,1.21-.34,2.16-.51,2.83-.51s2.08.29,4.2.86c2.13.57,3.19,2.72,3.19,6.43v37.96c0,2.23-.73,4.1-2.18,5.62-1.45,1.52-3.22,2.28-5.32,2.28h-1.72c-2.83-.68-4.69-2.61-5.57-5.79Z"/>
      <path class="cls-6" d="m5240.8,133.86c-5.74-.68-10.16-2.44-13.26-5.28-3.11-2.85-4.66-6.3-4.66-10.37v-21.65c0-4.34,1.74-7.98,5.21-10.92,3.48-2.95,7.88-4.42,13.21-4.42,1.96,0,3.66.15,5.11.46,1.45.31,3.19.86,5.21,1.68l2.83,1.32c2.36,1.29,4.13,2.73,5.31,4.33,1.18,1.59,1.77,3.2,1.77,4.83,0,1.97-.83,3.73-2.48,5.29-1.65,1.56-3.36,2.34-5.11,2.34-1.62,0-3.05-.49-4.3-1.48-1.25-.99-2.45-2.5-3.59-4.54-1.15-2.04-2.06-3.77-2.73-5.2-.68-1.43-1.43-2.41-2.28-2.95-.84-.54-1.84-.82-2.99-.82-1.42,0-2.78.22-4.1.66-1.32.44-2.8,1.48-4.45,3.1-1.65,1.63-2.48,3.8-2.48,6.51v22.38c0,2.71,1.11,4.95,3.34,6.72,2.23,1.76,4.39,2.64,6.48,2.64,3.64,0,6.46-2.46,8.45-7.39,1.99-4.93,4.64-7.39,7.95-7.39,1.42,0,3.07.66,4.96,1.97,1.89,1.32,2.83,3.36,2.83,6.13,0,2.3-.68,4.32-2.02,6.07-1.35,1.76-2.97,3.06-4.86,3.9-1.89.85-3.71,1.4-5.47,1.67-1.76.27-2.97.4-3.64.4h-4.25Z"/>
    </g>
    <path class="cls-2" d="m5631.63,47.34v-13.84h-134.83v.34l-1636.26,19.79c-1.56.02-3.06.58-4.26,1.58l-109.98,92.28c-4.83,4.05-1.96,11.92,4.34,11.92h1879.22v-13.5h-1849.63c-6.3,0-9.17-7.87-4.34-11.92l77.8-65.28c1.19-1,2.7-1.56,4.26-1.58l1638.85-19.79h134.83Z"/>
    <polygon class="cls-5" points="5340.47 62.77 5340.47 88.45 5631.63 87.42 5631.63 60.42 5340.47 62.77"/>
    <polygon class="cls-2" points="3884.45 80.67 3865.68 96.42 4886.92 90.9 4886.92 68.34 3884.45 80.67"/>
    <path class="cls-2" d="m5532.1,105.42s-74.3.1-191.63.26v26.74h289.4v-27s-97.76,0-97.76,0Z"/>
    <path class="cls-2" d="m3852.27,107.67l-29.5,24.75h1064.15v-26.14c-473.61.63-1034.65,1.39-1034.65,1.39Z"/>
    <line class="cls-7" x1="5525.04" y1="96.46" x2="5340.79" y2="96.46"/>
  </g>
  <g>
    <g>
      <g>
        <path class="cls-6" d="m1356.94,387.88v-22.88c0-3.65,1.4-6.8,4.2-9.47,2.8-2.67,5.6-4.13,8.4-4.4,2.8-.27,4.49-.42,5.06-.46.57-.03.96-.05,1.16-.05,1.21,0,3.24.15,6.07.46,2.83.3,5.63,1.74,8.4,4.3,2.77,2.57,4.15,5.7,4.15,9.42,0,.95-.03,1.67-.1,2.18-.07.51-.46,1.87-1.16,4.1-.71,2.23-2.3,4.05-4.76,5.47-2.46,1.42-4.74,2.23-6.83,2.43l-14.38.91c-1.49,0-2.75.69-3.8,2.08-1.05,1.38-1.57,3.22-1.57,5.52,0,1.35.37,3.16,1.12,5.42.74,2.26,2.18,3.61,4.32,4.05,2.13.44,3.47.66,4.01.66,2.1,0,3.84-.79,5.23-2.38,1.39-1.59,2.37-3.44,2.94-5.57.58-2.13,1.18-3.47,1.83-4.05.64-.57,1.61-1.1,2.9-1.57,1.08-.27,1.86-.4,2.33-.4.81,0,1.79.22,2.95.66,1.15.44,2.27,1.43,3.35,2.99,1.08,1.55,1.62,3.11,1.62,4.66,0,1.82-.91,3.78-2.74,5.87-1.83,2.09-4.4,3.71-7.71,4.86-1.62.67-3.59,1.01-5.89,1.01-.47,0-.98-.04-1.52-.1-.54-.07-2.28-.24-5.23-.51-2.94-.27-6.07-1.89-9.39-4.86-3.32-2.97-4.97-6.41-4.97-10.33Zm15.59-15.08c1.65,1.62,3.74,2.43,6.28,2.43,2.4,0,4.94-.74,7.62-2.23,2.68-1.48,4.02-4.08,4.02-7.8v-1.32c0-1.21-.29-2.34-.87-3.39-.58-1.05-1.49-2.06-2.71-3.04-1.23-.98-2.7-1.47-4.4-1.47-3.28-.34-5.75.74-7.42,3.24-1.67,2.5-2.51,6.51-2.51,12.05v1.52Z"/>
        <path class="cls-6" d="m1405.94,402.96c-2.83-1.08-4.25-2.97-4.25-5.66v-61.87c0-3.1,1.03-4.95,3.09-5.56,2.06-.61,3.56-.91,4.5-.91.74,0,1.67.1,2.78.3,1.11.2,2.26.93,3.44,2.17,1.18,1.25,1.77,2.61,1.77,4.09v62.18c0,1.62-.73,3.03-2.18,4.25-1.45,1.21-3.19,1.82-5.21,1.82-1.01,0-1.74-.05-2.18-.15-.44-.1-1.03-.32-1.77-.66Z"/>
        <path class="cls-6" d="m1425.98,387.88v-22.88c0-3.65,1.4-6.8,4.2-9.47,2.8-2.67,5.6-4.13,8.4-4.4,2.8-.27,4.49-.42,5.06-.46.57-.03.96-.05,1.16-.05,1.21,0,3.24.15,6.07.46,2.83.3,5.63,1.74,8.4,4.3,2.77,2.57,4.15,5.7,4.15,9.42,0,.95-.03,1.67-.1,2.18-.07.51-.46,1.87-1.16,4.1-.71,2.23-2.3,4.05-4.76,5.47-2.46,1.42-4.74,2.23-6.83,2.43l-14.38.91c-1.49,0-2.75.69-3.8,2.08-1.05,1.38-1.57,3.22-1.57,5.52,0,1.35.37,3.16,1.12,5.42.74,2.26,2.18,3.61,4.32,4.05,2.13.44,3.47.66,4.01.66,2.1,0,3.84-.79,5.23-2.38,1.39-1.59,2.37-3.44,2.94-5.57.58-2.13,1.18-3.47,1.83-4.05.64-.57,1.61-1.1,2.9-1.57,1.08-.27,1.86-.4,2.33-.4.81,0,1.79.22,2.95.66,1.15.44,2.27,1.43,3.35,2.99,1.08,1.55,1.62,3.11,1.62,4.66,0,1.82-.91,3.78-2.74,5.87-1.83,2.09-4.4,3.71-7.71,4.86-1.62.67-3.59,1.01-5.89,1.01-.47,0-.98-.04-1.52-.1-.54-.07-2.28-.24-5.23-.51-2.94-.27-6.07-1.89-9.39-4.86-3.32-2.97-4.97-6.41-4.97-10.33Zm15.59-15.08c1.65,1.62,3.74,2.43,6.28,2.43,2.4,0,4.94-.74,7.62-2.23,2.68-1.48,4.02-4.08,4.02-7.8v-1.32c0-1.21-.29-2.34-.87-3.39-.58-1.05-1.49-2.06-2.71-3.04-1.23-.98-2.7-1.47-4.4-1.47-3.28-.34-5.75.74-7.42,3.24-1.67,2.5-2.51,6.51-2.51,12.05v1.52Z"/>
        <path class="cls-6" d="m1488.65,403.47c-5.74-.68-10.16-2.44-13.26-5.28-3.11-2.85-4.66-6.3-4.66-10.37v-21.65c0-4.34,1.74-7.98,5.21-10.92,3.48-2.95,7.88-4.42,13.21-4.42,1.96,0,3.66.15,5.11.46,1.45.31,3.19.86,5.21,1.68l2.83,1.32c2.36,1.29,4.13,2.73,5.31,4.33,1.18,1.59,1.77,3.2,1.77,4.83,0,1.97-.83,3.73-2.48,5.29-1.65,1.56-3.36,2.34-5.11,2.34-1.62,0-3.05-.49-4.3-1.48-1.25-.99-2.45-2.5-3.59-4.54-1.15-2.04-2.06-3.77-2.73-5.2-.68-1.43-1.43-2.41-2.28-2.95-.84-.54-1.84-.82-2.99-.82-1.42,0-2.78.22-4.1.66-1.32.44-2.8,1.48-4.45,3.1-1.65,1.63-2.48,3.8-2.48,6.51v22.38c0,2.71,1.11,4.95,3.34,6.72,2.23,1.76,4.39,2.64,6.48,2.64,3.64,0,6.46-2.46,8.45-7.39,1.99-4.93,4.64-7.39,7.95-7.39,1.42,0,3.07.66,4.96,1.97,1.89,1.32,2.83,3.36,2.83,6.13,0,2.3-.68,4.32-2.02,6.07-1.35,1.76-2.97,3.06-4.86,3.9-1.89.85-3.71,1.4-5.47,1.67-1.76.27-2.97.4-3.64.4h-4.25Z"/>
        <path class="cls-6" d="m1511.53,354.67c-.07-.81.14-1.52.61-2.13.47-.61,1.08-.91,1.82-.91h6.28c1.42,0,2.46-.07,3.14-.2.67-.14,1.52-.59,2.53-1.37,1.01-.78,1.52-2.05,1.52-3.8v-4.97c0-.61.24-1.22.71-1.83.61-.47,1.18-.71,1.72-.71.67,0,1.25.24,1.72.71.47.47.71,1.15.71,2.03v6.7c.21,1.22.46,2.1.77,2.64.31.54.57.81.77.81h2.47c.62,0,1.08.25,1.39.76.31.51.39,1.23.26,2.18-.2,1.42-.78,2.13-1.72,2.13h-2.23c-.4.34-.61.61-.61.81v39.18c0,1.89-.69,3.53-2.08,4.91-1.38,1.38-3.26,2.08-5.62,2.08-2.57,0-4.69-.69-6.38-2.08-1.69-1.38-2.53-3.15-2.53-5.32v-37.25c0-1.55-.57-2.33-1.72-2.33h-1.52c-1.15,0-1.82-.67-2.03-2.02Z"/>
        <path class="cls-6" d="m1548.58,403.27c-1.89-.47-3.41-1.42-4.56-2.83-1.15-1.42-1.72-3.07-1.72-4.96v-30.27c0-3.91,1.75-7.34,5.26-10.28,3.51-2.94,8.06-4.4,13.67-4.4h1.52c.74.14,2.56.35,5.47.66,2.9.3,5.74,1.67,8.5,4.1,2.77,2.43,4.15,5.43,4.15,9.01v19.34c0,1.62-.59,3.07-1.77,4.35-1.18,1.28-2.72,2.06-4.61,2.33-2.36.2-4.52-.59-6.48-2.38-1.96-1.79-2.94-3.76-2.94-5.92,0-2.29,1.35-4.39,4.05-6.28l1.11-.71,2.63-1.72c2.63-1.62,3.95-3.71,3.95-6.28,0-1.01-.19-2.24-.56-3.7-.38-1.45-1.16-2.8-2.36-4.05-1.19-1.25-2.44-2.04-3.74-2.38-1.3-.34-2.1-.54-2.41-.61-.31-.07-.84-.1-1.59-.1-3.96,0-6.48,1.89-7.58,5.67v33.81c0,1.76-.54,3.32-1.62,4.71-1.08,1.38-2.26,2.24-3.54,2.58-1.28.34-2.3.51-3.04.51-.4,0-1.01-.07-1.82-.2Z"/>
        <path class="cls-6" d="m1590.19,340.8c-.81-1.35-1.21-2.8-1.21-4.35,0-1.21.27-2.41.81-3.59.54-1.18,1.47-2.18,2.78-2.99s2.72-1.21,4.2-1.21c1.08,0,2.23.27,3.44.81,1.42.81,2.43,1.76,3.04,2.83.88,1.28,1.32,2.73,1.32,4.35,0,1.21-.47,2.82-1.42,4.81-.95,1.99-3.11,2.99-6.48,2.99-1.15,0-2.31-.3-3.49-.91-1.18-.61-2.18-1.52-2.99-2.73Zm-.4,57.08l-.3-2.13v-37.5c0-1.76.51-3.32,1.52-4.68,1.01-1.35,2.13-2.2,3.34-2.54,1.21-.34,2.16-.51,2.83-.51s2.08.29,4.2.86c2.13.57,3.19,2.72,3.19,6.43v37.96c0,2.23-.73,4.1-2.18,5.62-1.45,1.52-3.22,2.28-5.32,2.28h-1.72c-2.83-.68-4.69-2.61-5.57-5.79Z"/>
        <path class="cls-6" d="m1631.9,403.47c-5.74-.68-10.16-2.44-13.26-5.28-3.11-2.85-4.66-6.3-4.66-10.37v-21.65c0-4.34,1.74-7.98,5.21-10.92,3.48-2.95,7.88-4.42,13.21-4.42,1.96,0,3.66.15,5.11.46,1.45.31,3.19.86,5.21,1.68l2.83,1.32c2.36,1.29,4.13,2.73,5.31,4.33,1.18,1.59,1.77,3.2,1.77,4.83,0,1.97-.83,3.73-2.48,5.29-1.65,1.56-3.36,2.34-5.11,2.34-1.62,0-3.05-.49-4.3-1.48-1.25-.99-2.45-2.5-3.59-4.54-1.15-2.04-2.06-3.77-2.73-5.2-.68-1.43-1.43-2.41-2.28-2.95-.84-.54-1.84-.82-2.99-.82-1.42,0-2.78.22-4.1.66-1.32.44-2.8,1.48-4.45,3.1-1.65,1.63-2.48,3.8-2.48,6.51v22.38c0,2.71,1.11,4.95,3.34,6.72,2.23,1.76,4.39,2.64,6.48,2.64,3.64,0,6.46-2.46,8.45-7.39,1.99-4.93,4.64-7.39,7.95-7.39,1.42,0,3.07.66,4.96,1.97,1.89,1.32,2.83,3.36,2.83,6.13,0,2.3-.68,4.32-2.02,6.07-1.35,1.76-2.97,3.06-4.86,3.9-1.89.85-3.71,1.4-5.47,1.67-1.76.27-2.97.4-3.64.4h-4.25Z"/>
      </g>
      <path class="cls-2" d="m986.86,316.95v-13.84h134.83v.34s1636.26,19.79,1636.26,19.79c1.56.02,3.06.58,4.26,1.58l109.98,92.28c4.83,4.05,1.96,11.92-4.34,11.92h-1739.81s-34.9,0-34.9,0h-104.51v-13.5h104.51s34.9,0,34.9,0h1710.22c6.3,0,9.17-7.87,4.34-11.92l-77.8-65.28c-1.19-1-2.7-1.56-4.26-1.58l-1638.85-19.79h-134.83Z"/>
    </g>
    <polygon class="cls-5" points="1278.02 332.38 1278.02 358.06 986.86 357.02 986.86 330.02 1278.02 332.38"/>
    <polygon class="cls-2" points="2734.04 350.27 2752.81 366.02 1731.57 360.51 1731.57 337.95 2734.04 350.27"/>
    <path class="cls-2" d="m1086.39,375.02s74.3.1,191.63.26v26.74h-191.63s-97.76,0-97.76,0v-27s97.76,0,97.76,0Z"/>
    <path class="cls-2" d="m2766.22,377.27l29.5,24.75h-1064.15v-26.14c473.61.63,1034.65,1.39,1034.65,1.39Z"/>
  </g>
  <g>
    <path class="cls-3" d="m5216.88,816.19h418.77c127.49,0,238.41-87.27,268.42-211.18l73.13-302c17.72-73.19,83.68-124.4,158.98-123.45l434.52,4.5v-45h-484.12c-89.07,0-168.09,57.15-195.97,141.74l-104.94,318.3c-19.69,59.73-75.49,100.09-138.38,100.09h-451.21"/>
    <path class="cls-3" d="m5182.46,622.69h425.66c65.06,0,123.07-40.99,144.81-102.31l97.82-276c30.32-85.56,111.25-142.74,202.02-142.74h517.93v-49.5h-603.77c-77.4,0-147.45,45.82-178.47,116.73l-109.49,250.25c-23.01,52.59-74.96,86.57-132.36,86.57h-384.96l20.81,117Z"/>
    <path class="cls-3" d="m5135.81,512.24l55.53,312.15c1.94,10.88,11.39,18.8,22.44,18.8h425.24c138.46,0,258.93-94.78,291.52-229.35l72.66-300.07c14.59-60.26,68.54-102.71,130.55-102.71h436.95v-13.52h-81.07v.02h-359.66c-66.73,0-124.79,45.68-140.49,110.53l-72.21,298.22c-31.74,131.07-149.07,223.38-283.93,223.38h-409.07c-10.69,0-19.84-7.67-21.72-18.19l-52.23-293.59c-2.39-13.41,7.92-25.71,21.54-25.71h366.02c58.09,0,110.67-34.39,133.96-87.61l107.82-246.45c31.76-72.59,103.47-119.49,182.7-119.49h608.35v-13.5h-608.93c-83.49,0-159.06,49.42-192.53,125.91l-108.93,248.97c-20.9,47.78-68.11,78.65-120.26,78.65h-376.14c-17.77,0-31.22,16.06-28.11,33.55Z"/>
  </g>
  <g>
    <path class="cls-3" d="m82.02,27.5h418.77c127.49,0,238.41,87.27,268.42,211.18l73.13,302c17.72,73.19,83.68,124.4,158.98,123.45l434.52-4.5v45h-484.12c-89.07,0-168.09-57.15-195.97-141.74l-104.94-318.3c-19.69-59.73-75.49-100.09-138.38-100.09H61.21"/>
    <path class="cls-3" d="m47.6,221h425.66c65.06,0,123.07,40.99,144.81,102.31l97.82,276c30.32,85.56,111.25,142.74,202.02,142.74h485.92s32.01,0,32.01,0v49.5h-32.01s-571.76,0-571.76,0c-77.4,0-147.45-45.82-178.47-116.73l-109.49-250.25c-23.01-52.59-74.96-86.57-132.36-86.57H26.78s20.81-117,20.81-117Z"/>
    <path class="cls-3" d="m.95,331.45L56.48,19.3C58.42,8.42,67.87.5,78.92.5h425.24c138.46,0,258.93,94.78,291.52,229.35l72.66,300.07c14.59,60.26,68.54,102.71,130.55,102.71h355.88s81.07,0,81.07,0v13.52h-81.07v-.02h-359.66c-66.73,0-124.79-45.68-140.49-110.53l-72.21-298.22C750.66,106.31,633.33,14,498.47,14H89.4c-10.69,0-19.84,7.67-21.72,18.19L15.46,325.79c-2.39,13.41,7.92,25.71,21.54,25.71h366.02c58.09,0,110.67,34.39,133.96,87.61l107.82,246.45c31.76,72.59,103.47,119.49,182.7,119.49h576.34s32.01,0,32.01,0v13.5h-32.01s-576.92,0-576.92,0c-83.49,0-159.06-49.42-192.53-125.91l-108.93-248.97c-20.9-47.78-68.11-78.65-120.26-78.65H29.06c-17.77,0-31.22-16.06-28.11-33.55Z"/>
  </g>
  <g>
    <path class="cls-6" d="m4593.99,511.13H1977.2c6.19,4.22,12.16,8.73,17.9,13.5h2580.99c5.74-4.77,11.71-9.28,17.9-13.5Z"/>
    <path class="cls-6" d="m4491.6,704.63c0-65.15,26.63-124.08,69.6-166.5H2010c42.97,42.42,69.6,101.35,69.6,166.5s-26.63,124.08-69.6,166.5h1110.29c-12.28-21.69-19.19-46.13-19.19-72,0-89.47,82.6-162,184.5-162s184.5,72.53,184.5,162c0,25.87-6.92,50.31-19.19,72h1110.29c-42.97-42.42-69.6-101.35-69.6-166.5Z"/>
    <path class="cls-6" d="m1995.1,884.63c-5.74,4.77-11.71,9.28-17.9,13.5h1162.36c-3.81-4.33-7.38-8.84-10.69-13.5h-1133.77Z"/>
    <path class="cls-6" d="m4593.99,898.13c-6.19-4.22-12.16-8.73-17.9-13.5h-1133.77c-3.31,4.66-6.87,9.17-10.69,13.5h1162.36Z"/>
    <g>
      <path class="cls-1" d="m3652.61,748.49v-50.79c0-8.09,3.11-15.09,9.33-21.01,6.22-5.92,12.44-9.18,18.66-9.78,6.22-.6,9.96-.93,11.24-1.01,1.27-.07,2.13-.11,2.58-.11,2.7,0,7.19.34,13.48,1.01,6.29.67,12.51,3.86,18.65,9.55,6.14,5.7,9.22,12.66,9.22,20.9,0,2.1-.08,3.71-.23,4.83-.15,1.12-1.01,4.16-2.58,9.1-1.57,4.95-5.1,8.99-10.56,12.14-5.47,3.15-10.53,4.95-15.17,5.39l-31.91,2.02c-3.3,0-6.11,1.54-8.43,4.61-2.32,3.07-3.48,7.16-3.48,12.25,0,3,.83,7.01,2.48,12.02,1.65,5.02,4.85,8.02,9.58,8.99,4.73.98,7.7,1.46,8.91,1.46,4.66,0,8.53-1.76,11.61-5.28,3.08-3.52,5.26-7.64,6.53-12.36,1.28-4.72,2.63-7.71,4.06-8.99,1.43-1.27,3.57-2.43,6.43-3.49,2.4-.6,4.13-.9,5.18-.9,1.81,0,3.98.49,6.54,1.46,2.56.98,5.04,3.19,7.44,6.63,2.4,3.45,3.61,6.89,3.61,10.34,0,4.04-2.03,8.39-6.09,13.04-4.06,4.65-9.77,8.24-17.13,10.79-3.61,1.5-7.96,2.25-13.07,2.25-1.05,0-2.18-.08-3.38-.23-1.2-.15-5.07-.53-11.61-1.12-6.54-.6-13.48-4.19-20.85-10.79-7.36-6.59-11.04-14.23-11.04-22.93Zm34.61-33.49c3.66,3.6,8.31,5.39,13.95,5.39,5.33,0,10.97-1.65,16.92-4.94,5.94-3.29,8.92-9.06,8.92-17.31v-2.92c0-2.7-.65-5.2-1.93-7.53-1.29-2.32-3.3-4.57-6.03-6.74-2.73-2.17-5.99-3.26-9.77-3.26-7.28-.75-12.77,1.65-16.48,7.19-3.72,5.55-5.57,14.46-5.57,26.75v3.37Z"/>
      <path class="cls-1" d="m3761.38,781.98c-6.29-2.4-9.44-6.58-9.44-12.57v-137.36c0-6.88,2.28-11,6.86-12.34,4.57-1.35,7.9-2.02,10-2.02,1.65,0,3.71.23,6.18.67,2.47.45,5.02,2.06,7.64,4.82,2.62,2.77,3.93,5.8,3.93,9.09v138.04c0,3.59-1.61,6.74-4.83,9.43-3.22,2.69-7.08,4.04-11.58,4.04-2.25,0-3.86-.11-4.83-.34-.98-.23-2.29-.71-3.93-1.46Z"/>
      <path class="cls-1" d="m3805.88,748.49v-50.79c0-8.09,3.11-15.09,9.33-21.01,6.22-5.92,12.44-9.18,18.66-9.78,6.22-.6,9.96-.93,11.24-1.01,1.27-.07,2.13-.11,2.58-.11,2.7,0,7.19.34,13.48,1.01,6.29.67,12.51,3.86,18.65,9.55,6.14,5.7,9.22,12.66,9.22,20.9,0,2.1-.08,3.71-.23,4.83-.15,1.12-1.01,4.16-2.58,9.1-1.57,4.95-5.1,8.99-10.56,12.14-5.47,3.15-10.53,4.95-15.17,5.39l-31.91,2.02c-3.3,0-6.11,1.54-8.43,4.61-2.32,3.07-3.48,7.16-3.48,12.25,0,3,.83,7.01,2.48,12.02,1.65,5.02,4.85,8.02,9.58,8.99,4.73.98,7.7,1.46,8.91,1.46,4.66,0,8.53-1.76,11.61-5.28,3.08-3.52,5.26-7.64,6.53-12.36,1.28-4.72,2.63-7.71,4.06-8.99,1.43-1.27,3.57-2.43,6.43-3.49,2.4-.6,4.13-.9,5.18-.9,1.81,0,3.98.49,6.54,1.46,2.56.98,5.04,3.19,7.44,6.63,2.4,3.45,3.61,6.89,3.61,10.34,0,4.04-2.03,8.39-6.09,13.04-4.06,4.65-9.77,8.24-17.13,10.79-3.61,1.5-7.96,2.25-13.07,2.25-1.05,0-2.18-.08-3.38-.23-1.2-.15-5.07-.53-11.61-1.12-6.54-.6-13.48-4.19-20.85-10.79-7.36-6.59-11.04-14.23-11.04-22.93Zm34.61-33.49c3.66,3.6,8.31,5.39,13.95,5.39,5.33,0,10.97-1.65,16.92-4.94,5.94-3.29,8.92-9.06,8.92-17.31v-2.92c0-2.7-.65-5.2-1.93-7.53-1.29-2.32-3.3-4.57-6.03-6.74-2.73-2.17-5.99-3.26-9.77-3.26-7.28-.75-12.77,1.65-16.48,7.19-3.72,5.55-5.57,14.46-5.57,26.75v3.37Z"/>
      <path class="cls-1" d="m3945,783.1c-12.74-1.5-22.55-5.41-29.44-11.73-6.89-6.32-10.34-13.99-10.34-23.02v-48.06c0-9.62,3.86-17.71,11.58-24.25,7.72-6.54,17.49-9.82,29.33-9.82,4.34,0,8.13.34,11.35,1.02,3.22.68,7.08,1.92,11.57,3.73l6.29,2.94c5.24,2.86,9.18,6.06,11.8,9.6,2.62,3.54,3.93,7.12,3.93,10.73,0,4.37-1.84,8.28-5.51,11.75-3.67,3.46-7.46,5.19-11.35,5.19-3.6,0-6.78-1.09-9.55-3.28-2.77-2.19-5.43-5.55-7.98-10.07-2.55-4.52-4.57-8.37-6.07-11.54-1.5-3.17-3.18-5.35-5.06-6.56-1.88-1.21-4.08-1.81-6.63-1.81-3.15,0-6.18.49-9.1,1.47-2.92.98-6.22,3.28-9.89,6.89-3.67,3.61-5.51,8.43-5.51,14.45v49.69c0,6.03,2.47,11,7.42,14.91,4.94,3.91,9.74,5.87,14.38,5.87,8.09,0,14.35-5.47,18.77-16.41,4.42-10.94,10.3-16.41,17.64-16.41,3.15,0,6.82,1.46,11.01,4.38,4.19,2.92,6.29,7.46,6.29,13.6,0,5.1-1.5,9.59-4.49,13.48-3,3.9-6.59,6.78-10.79,8.65-4.2,1.88-8.24,3.11-12.14,3.71-3.9.6-6.59.9-8.09.9h-9.44Z"/>
      <path class="cls-1" d="m3995.79,674.77c-.15-1.8.3-3.37,1.35-4.72,1.05-1.35,2.4-2.02,4.05-2.02h13.93c3.15,0,5.47-.15,6.97-.45,1.5-.3,3.37-1.31,5.62-3.04,2.25-1.72,3.37-4.54,3.37-8.45v-11.03c0-1.35.52-2.7,1.57-4.05,1.35-1.05,2.62-1.58,3.82-1.58,1.5,0,2.77.53,3.82,1.58,1.05,1.05,1.57,2.55,1.57,4.5v14.87c.46,2.7,1.03,4.65,1.71,5.85.69,1.2,1.26,1.8,1.72,1.8h5.49c1.37,0,2.4.56,3.09,1.69.68,1.12.87,2.74.58,4.83-.45,3.15-1.72,4.72-3.82,4.72h-4.94c-.9.75-1.35,1.35-1.35,1.8v86.98c0,4.2-1.54,7.83-4.61,10.9-3.07,3.07-7.23,4.61-12.47,4.61-5.7,0-10.42-1.54-14.16-4.61-3.75-3.07-5.62-7-5.62-11.8v-82.71c0-3.44-1.27-5.17-3.82-5.17h-3.37c-2.55,0-4.05-1.5-4.5-4.49Z"/>
      <path class="cls-1" d="m4078.05,782.65c-4.2-1.05-7.57-3.15-10.11-6.29-2.55-3.15-3.82-6.82-3.82-11.01v-67.2c0-8.69,3.89-16.3,11.69-22.81,7.79-6.52,17.9-9.78,30.34-9.78h3.37c1.65.3,5.69.79,12.14,1.46,6.44.68,12.73,3.71,18.88,9.1,6.14,5.39,9.21,12.06,9.21,20v42.93c0,3.6-1.31,6.82-3.93,9.66-2.62,2.85-6.03,4.57-10.23,5.17-5.25.45-10.04-1.31-14.38-5.28-4.35-3.97-6.52-8.35-6.52-13.15,0-5.09,3-9.74,8.99-13.93l2.47-1.57,5.84-3.82c5.84-3.6,8.77-8.24,8.77-13.93,0-2.25-.42-4.98-1.25-8.2-.84-3.22-2.58-6.21-5.23-8.99-2.65-2.77-5.41-4.53-8.29-5.28-2.88-.75-4.66-1.2-5.34-1.35-.68-.15-1.86-.23-3.52-.23-8.79,0-14.4,4.2-16.82,12.59v75.07c0,3.9-1.2,7.38-3.6,10.45-2.4,3.07-5.02,4.98-7.87,5.73-2.85.75-5.1,1.12-6.74,1.12-.9,0-2.25-.15-4.05-.45Z"/>
      <path class="cls-1" d="m4170.42,643.98c-1.8-3-2.7-6.22-2.7-9.66,0-2.7.6-5.36,1.8-7.98,1.2-2.62,3.26-4.83,6.18-6.63,2.92-1.8,6.03-2.7,9.33-2.7,2.4,0,4.95.6,7.64,1.8,3.15,1.8,5.39,3.9,6.74,6.29,1.94,2.85,2.92,6.07,2.92,9.66,0,2.7-1.05,6.26-3.15,10.67-2.1,4.42-6.89,6.63-14.38,6.63-2.55,0-5.13-.67-7.75-2.02-2.62-1.35-4.83-3.37-6.63-6.07Zm-.9,126.71l-.67-4.74v-83.25c0-3.91,1.12-7.37,3.37-10.38,2.25-3.01,4.72-4.89,7.42-5.64,2.7-.75,4.79-1.13,6.29-1.13s4.61.64,9.33,1.91c4.72,1.27,7.08,6.03,7.08,14.27v84.28c0,4.94-1.61,9.1-4.83,12.47-3.22,3.37-7.16,5.06-11.8,5.06h-3.82c-6.29-1.5-10.42-5.79-12.36-12.86Z"/>
      <path class="cls-1" d="m4263.01,783.1c-12.74-1.5-22.55-5.41-29.44-11.73-6.89-6.32-10.34-13.99-10.34-23.02v-48.06c0-9.62,3.86-17.71,11.58-24.25,7.72-6.54,17.49-9.82,29.33-9.82,4.34,0,8.13.34,11.35,1.02,3.22.68,7.08,1.92,11.57,3.73l6.29,2.94c5.24,2.86,9.18,6.06,11.8,9.6,2.62,3.54,3.93,7.12,3.93,10.73,0,4.37-1.84,8.28-5.51,11.75-3.67,3.46-7.46,5.19-11.35,5.19-3.6,0-6.78-1.09-9.55-3.28-2.77-2.19-5.43-5.55-7.98-10.07-2.55-4.52-4.57-8.37-6.07-11.54-1.5-3.17-3.18-5.35-5.06-6.56-1.88-1.21-4.08-1.81-6.63-1.81-3.15,0-6.18.49-9.1,1.47-2.92.98-6.22,3.28-9.89,6.89-3.67,3.61-5.51,8.43-5.51,14.45v49.69c0,6.03,2.47,11,7.42,14.91,4.94,3.91,9.74,5.87,14.38,5.87,8.09,0,14.35-5.47,18.77-16.41,4.42-10.94,10.3-16.41,17.64-16.41,3.15,0,6.82,1.46,11.01,4.38,4.19,2.92,6.29,7.46,6.29,13.6,0,5.1-1.5,9.59-4.49,13.48-3,3.9-6.59,6.78-10.79,8.65-4.2,1.88-8.24,3.11-12.14,3.71-3.9.6-6.59.9-8.09.9h-9.44Z"/>
    </g>
  </g>
</svg>